<svg xmlns="http://www.w3.org/2000/svg">
<symbol id="note" viewBox="0 0 20 20">
    <path d="M15 6C15 6.26522 14.8946 6.51957 14.7071 6.70711C14.5196 6.89464 14.2652 7 14 7H8C7.73478 7 7.48043 6.89464 7.29289 6.70711C7.10536 6.51957 7 6.26522 7 6C7 5.73478 7.10536 5.48043 7.29289 5.29289C7.48043 5.10536 7.73478 5 8 5H14C14.2652 5 14.5196 5.10536 14.7071 5.29289C14.8946 5.48043 15 5.73478 15 6ZM14 9H8C7.73478 9 7.48043 9.10536 7.29289 9.29289C7.10536 9.48043 7 9.73478 7 10C7 10.2652 7.10536 10.5196 7.29289 10.7071C7.48043 10.8946 7.73478 11 8 11H14C14.2652 11 14.5196 10.8946 14.7071 10.7071C14.8946 10.5196 15 10.2652 15 10C15 9.73478 14.8946 9.48043 14.7071 9.29289C14.5196 9.10536 14.2652 9 14 9ZM11 13H8C7.73478 13 7.48043 13.1054 7.29289 13.2929C7.10536 13.4804 7 13.7348 7 14C7 14.2652 7.10536 14.5196 7.29289 14.7071C7.48043 14.8946 7.73478 15 8 15H11C11.2652 15 11.5196 14.8946 11.7071 14.7071C11.8946 14.5196 12 14.2652 12 14C12 13.7348 11.8946 13.4804 11.7071 13.2929C11.5196 13.1054 11.2652 13 11 13ZM20 3V17C20 17.7956 19.6839 18.5587 19.1213 19.1213C18.5587 19.6839 17.7956 20 17 20H5C4.20435 20 3.44129 19.6839 2.87868 19.1213C2.31607 18.5587 2 17.7956 2 17V16H1C0.734784 16 0.48043 15.8946 0.292893 15.7071C0.105357 15.5196 0 15.2652 0 15C0 14.7348 0.105357 14.4804 0.292893 14.2929C0.48043 14.1054 0.734784 14 1 14H2V6H1C0.734784 6 0.48043 5.89464 0.292893 5.70711C0.105357 5.51957 0 5.26522 0 5C0 4.73478 0.105357 4.48043 0.292893 4.29289C0.48043 4.10536 0.734784 4 1 4H2V3C2 2.20435 2.31607 1.44129 2.87868 0.87868C3.44129 0.316071 4.20435 0 5 0H17C17.7956 0 18.5587 0.316071 19.1213 0.87868C19.6839 1.44129 20 2.20435 20 3ZM18 3C18 2.73478 17.8946 2.48043 17.7071 2.29289C17.5196 2.10536 17.2652 2 17 2H5C4.73478 2 4.48043 2.10536 4.29289 2.29289C4.10536 2.48043 4 2.73478 4 3V5V15V17C4 17.2652 4.10536 17.5196 4.29289 17.7071C4.48043 17.8946 4.73478 18 5 18H17C17.2652 18 17.5196 17.8946 17.7071 17.7071C17.8946 17.5196 18 17.2652 18 17V3Z"/>
</symbol>
<symbol id="cross" viewBox="0 0 18 18">
    <path d="M10.0041 16.0711C10.0041 16.3374 9.8983 16.5928 9.71 16.7811C9.5217 16.9694 9.2663 17.0752 9 17.0752C8.7337 17.0752 8.4783 16.9694 8.29 16.7811C8.1017 16.5928 7.99591 16.3374 7.99591 16.0711L8.00298 9.99702L1.92893 10.0041C1.66263 10.0041 1.40724 9.8983 1.21893 9.71C1.03063 9.5217 0.924841 9.2663 0.924842 9C0.924842 8.7337 1.03063 8.47831 1.21893 8.29C1.40724 8.1017 1.66263 7.99591 1.92893 7.99591L8.00298 8.00298L7.99591 1.92893C7.99591 1.66263 8.1017 1.40724 8.29 1.21893C8.4783 1.03063 8.7337 0.924842 9 0.924842C9.2663 0.924842 9.5217 1.03063 9.71 1.21893C9.8983 1.40724 10.0041 1.66263 10.0041 1.92893L9.99702 8.00298L16.0711 7.99591C16.3374 7.99591 16.5928 8.1017 16.7811 8.29C16.9694 8.47831 17.0752 8.7337 17.0752 9C17.0752 9.2663 16.9694 9.5217 16.7811 9.71C16.5928 9.8983 16.3374 10.0041 16.0711 10.0041L9.99702 9.99702L10.0041 16.0711Z"/>
</symbol>
<symbol id="login" viewBox="0 0 20 20">
    <path d="M10 4C9.20888 4 8.43552 4.2346 7.77772 4.67412C7.11993 5.11365 6.60724 5.73836 6.30449 6.46927C6.00174 7.20017 5.92252 8.00444 6.07686 8.78036C6.2312 9.55628 6.61217 10.269 7.17158 10.8284C7.73099 11.3878 8.44372 11.7688 9.21964 11.9231C9.99557 12.0775 10.7998 11.9983 11.5307 11.6955C12.2616 11.3928 12.8864 10.8801 13.3259 10.2223C13.7654 9.56448 14 8.79113 14 8C14 6.93913 13.5786 5.92172 12.8284 5.17157C12.0783 4.42143 11.0609 4 10 4ZM10 10C9.60444 10 9.21776 9.8827 8.88886 9.66294C8.55997 9.44318 8.30362 9.13082 8.15225 8.76537C8.00087 8.39991 7.96126 7.99778 8.03843 7.60982C8.1156 7.22186 8.30609 6.86549 8.58579 6.58579C8.8655 6.30608 9.22186 6.1156 9.60982 6.03843C9.99779 5.96126 10.3999 6.00087 10.7654 6.15224C11.1308 6.30362 11.4432 6.55996 11.6629 6.88886C11.8827 7.21776 12 7.60444 12 8C12 8.53043 11.7893 9.03914 11.4142 9.41421C11.0391 9.78929 10.5304 10 10 10ZM10 0C8.02219 0 6.08879 0.58649 4.4443 1.6853C2.79981 2.78412 1.51809 4.3459 0.761209 6.17317C0.00433284 8.00043 -0.193701 10.0111 0.192152 11.9509C0.578004 13.8907 1.53041 15.6725 2.92894 17.0711C4.32746 18.4696 6.10929 19.422 8.0491 19.8079C9.98891 20.1937 11.9996 19.9957 13.8268 19.2388C15.6541 18.4819 17.2159 17.2002 18.3147 15.5557C19.4135 13.9112 20 11.9778 20 10C20 8.68678 19.7413 7.38642 19.2388 6.17317C18.7363 4.95991 17.9997 3.85752 17.0711 2.92893C16.1425 2.00035 15.0401 1.26375 13.8268 0.761205C12.6136 0.258658 11.3132 0 10 0ZM6 16.92V16C6 15.7348 6.10536 15.4804 6.2929 15.2929C6.48043 15.1054 6.73479 15 7 15H13C13.2652 15 13.5196 15.1054 13.7071 15.2929C13.8946 15.4804 14 15.7348 14 16V16.92C12.7855 17.6271 11.4053 17.9996 10 17.9996C8.59469 17.9996 7.21448 17.6271 6 16.92ZM15.93 15.35C15.782 14.6833 15.411 14.087 14.8783 13.6597C14.3455 13.2324 13.6829 12.9997 13 13H7C6.31707 12.9997 5.65448 13.2324 5.12174 13.6597C4.58899 14.087 4.21797 14.6833 4.07 15.35C3.03059 14.2022 2.34665 12.7773 2.10117 11.2484C1.85569 9.71946 2.05921 8.15214 2.68705 6.73661C3.31489 5.32108 4.34005 4.11819 5.63815 3.27388C6.93625 2.42958 8.45149 1.98017 10 1.98017C11.5485 1.98017 13.0638 2.42958 14.3619 3.27388C15.66 4.11819 16.6851 5.32108 17.313 6.73661C17.9408 8.15214 18.1443 9.71946 17.8988 11.2484C17.6534 12.7773 16.9694 14.2022 15.93 15.35Z"/>
</symbol>
<symbol id="back" viewBox="0 0 18 13">
  <path d="M18 8.49999C18.0013 9.09131 17.8858 9.67707 17.6601 10.2236C17.4345 10.7702 17.1031 11.2668 16.6849 11.6849C16.2668 12.103 15.7702 12.4345 15.2236 12.6601C14.6771 12.8858 14.0913 13.0013 13.5 13H11C10.7348 13 10.4804 12.8946 10.2929 12.7071C10.1054 12.5196 10 12.2652 10 12C10 11.7348 10.1054 11.4804 10.2929 11.2929C10.4804 11.1053 10.7348 11 11 11H13.5C14.163 11 14.7989 10.7366 15.2678 10.2678C15.7366 9.79892 16 9.16303 16 8.49999C16 7.83695 15.7366 7.20107 15.2678 6.73223C14.7989 6.26339 14.163 5.99999 13.5 5.99999H3.2L5.60001 8.39999C5.74401 8.56203 5.82066 8.77296 5.81428 8.98965C5.8079 9.20633 5.71898 9.41239 5.56569 9.56568C5.4124 9.71896 5.20635 9.80789 4.98966 9.81427C4.77298 9.82065 4.56204 9.744 4.4 9.59999L0.400005 5.59999C0.241234 5.44067 0.152084 5.22492 0.152084 4.99999C0.152084 4.77507 0.241234 4.55931 0.400005 4.39999L4.4 0.399994C4.56204 0.25599 4.77298 0.179338 4.98966 0.185717C5.20635 0.192096 5.4124 0.281023 5.56569 0.434308C5.71898 0.587594 5.8079 0.793653 5.81428 1.01034C5.82066 1.22702 5.74401 1.43796 5.60001 1.59999L3.2 3.99999H13.5C14.0913 3.99868 14.6771 4.11417 15.2236 4.33985C15.7702 4.56553 16.2668 4.89695 16.6849 5.31507C17.1031 5.7332 17.4345 6.2298 17.6601 6.77636C17.8858 7.32292 18.0013 7.90867 18 8.49999Z"/>
</symbol>
<symbol id="exit" viewBox="0 0 17 18">
  <path d="M10 17C10 17.2652 9.89464 17.5196 9.70711 17.7071C9.51957 17.8946 9.26522 18 9 18H3C2.20435 18 1.44129 17.6839 0.87868 17.1213C0.316071 16.5587 0 15.7956 0 15V3C0 2.20435 0.316071 1.44129 0.87868 0.87868C1.44129 0.316071 2.20435 0 3 0H9C9.26522 0 9.51957 0.105357 9.70711 0.292893C9.89464 0.48043 10 0.734784 10 1C10 1.26522 9.89464 1.51957 9.70711 1.70711C9.51957 1.89464 9.26522 2 9 2H3C2.73478 2 2.48043 2.10536 2.29289 2.29289C2.10536 2.48043 2 2.73478 2 3V15C2 15.2652 2.10536 15.5196 2.29289 15.7071C2.48043 15.8946 2.73478 16 3 16H9C9.26522 16 9.51957 16.1054 9.70711 16.2929C9.89464 16.4804 10 16.7348 10 17ZM16.6 8.4L12.6 4.4C12.5231 4.31342 12.4292 4.24347 12.3243 4.19447C12.2193 4.14546 12.1054 4.11842 11.9897 4.11501C11.8739 4.1116 11.7586 4.1319 11.651 4.17465C11.5433 4.21739 11.4455 4.2817 11.3636 4.3636C11.2817 4.44551 11.2174 4.5433 11.1746 4.65095C11.1319 4.75861 11.1116 4.87387 11.115 4.98966C11.1184 5.10544 11.1455 5.21931 11.1945 5.32426C11.2435 5.42922 11.3134 5.52305 11.4 5.6L13.8 8H6C5.73478 8 5.48043 8.10536 5.29289 8.29289C5.10536 8.48043 5 8.73478 5 9C5 9.26522 5.10536 9.51957 5.29289 9.70711C5.48043 9.89464 5.73478 10 6 10H13.8L11.4 12.4C11.256 12.562 11.1793 12.773 11.1857 12.9897C11.1921 13.2063 11.281 13.4124 11.4343 13.5657C11.5876 13.719 11.7937 13.8079 12.0103 13.8143C12.227 13.8207 12.438 13.744 12.6 13.6L16.6 9.6C16.7588 9.44068 16.8479 9.22492 16.8479 9C16.8479 8.77508 16.7588 8.55932 16.6 8.4Z"/>
</symbol>
<symbol id="taskChek" viewBox="0 0 19 19">
<path d="M6 1C6.08772 1.08401 6.15753 1.18491 6.20522 1.29662C6.25292 1.40833 6.2775 1.52854 6.2775 1.65C6.2775 1.77146 6.25292 1.89167 6.20522 2.00338C6.15753 2.11509 6.08772 2.21599 6 2.3L3.7 4.58C3.55377 4.70899 3.37302 4.79241 3.18 4.82H3.06C2.98697 4.82953 2.91302 4.82953 2.84 4.82C2.80013 4.82454 2.75987 4.82454 2.72 4.82C2.65576 4.79077 2.59531 4.75383 2.54 4.71L2.42 4.63L1.24 3.4C1.14101 3.3197 1.06 3.2195 1.00221 3.1059C0.944414 2.99229 0.911132 2.86781 0.904517 2.74053C0.897901 2.61324 0.918099 2.48598 0.963802 2.36699C1.00951 2.24801 1.07969 2.13995 1.16982 2.04983C1.25995 1.9597 1.36801 1.88951 1.48699 1.8438C1.60598 1.7981 1.73324 1.7779 1.86052 1.78452C1.98781 1.79114 2.11229 1.82442 2.2259 1.88221C2.3395 1.94 2.4397 2.02101 2.52 2.12L3.06 2.67L4.7 1C4.78401 0.912277 4.88491 0.842467 4.99662 0.794775C5.10833 0.747082 5.22853 0.722496 5.35 0.722496C5.47146 0.722496 5.59167 0.747082 5.70338 0.794775C5.81509 0.842467 5.91599 0.912277 6 1ZM4.7 7L3.06 8.67L2.52 8.12C2.34525 7.97824 2.12418 7.90626 1.89947 7.91794C1.67476 7.92962 1.46235 8.02413 1.30324 8.18324C1.14413 8.34235 1.04961 8.55477 1.03793 8.77948C1.02625 9.00419 1.09824 9.22526 1.24 9.4L2.42 10.58L2.54 10.66C2.59531 10.7038 2.65576 10.7408 2.72 10.77H2.84C2.91302 10.7795 2.98697 10.7795 3.06 10.77H3.18C3.37302 10.7424 3.55377 10.659 3.7 10.53L6 8.3C6.08536 8.21464 6.15307 8.11331 6.19926 8.00178C6.24546 7.89025 6.26924 7.77072 6.26924 7.65C6.26924 7.52928 6.24546 7.40975 6.19926 7.29822C6.15307 7.1867 6.08536 7.08536 6 7C5.91464 6.91464 5.8133 6.84693 5.70178 6.80074C5.59025 6.75454 5.47071 6.73076 5.35 6.73076C5.22928 6.73076 5.10975 6.75454 4.99822 6.80074C4.88669 6.84693 4.78536 6.91464 4.7 7ZM4.7 13L3.06 14.67L2.52 14.12C2.4397 14.021 2.3395 13.94 2.2259 13.8822C2.11229 13.8244 1.98781 13.7911 1.86052 13.7845C1.73324 13.7779 1.60598 13.7981 1.48699 13.8438C1.36801 13.8895 1.25995 13.9597 1.16982 14.0498C1.07969 14.14 1.00951 14.248 0.963802 14.367C0.918099 14.486 0.897901 14.6132 0.904517 14.7405C0.911132 14.8678 0.944414 14.9923 1.00221 15.1059C1.06 15.2195 1.14101 15.3197 1.24 15.4L2.42 16.58L2.54 16.66C2.59531 16.7038 2.65576 16.7408 2.72 16.77H2.84C2.91302 16.7795 2.98697 16.7795 3.06 16.77H3.18C3.37302 16.7424 3.55377 16.659 3.7 16.53L6 14.3C6.08536 14.2146 6.15307 14.1133 6.19926 14.0018C6.24546 13.8903 6.26924 13.7707 6.26924 13.65C6.26924 13.5293 6.24546 13.4097 6.19926 13.2982C6.15307 13.1867 6.08536 13.0854 6 13C5.91464 12.9146 5.8133 12.8469 5.70178 12.8007C5.59025 12.7545 5.47071 12.7308 5.35 12.7308C5.22928 12.7308 5.10975 12.7545 4.99822 12.8007C4.88669 12.8469 4.78536 12.9146 4.7 13ZM9 4H17.5C17.7652 4 18.0196 3.89464 18.2071 3.70711C18.3946 3.51957 18.5 3.26522 18.5 3C18.5 2.73478 18.3946 2.48043 18.2071 2.29289C18.0196 2.10536 17.7652 2 17.5 2H9C8.73478 2 8.48043 2.10536 8.29289 2.29289C8.10536 2.48043 8 2.73478 8 3C8 3.26522 8.10536 3.51957 8.29289 3.70711C8.48043 3.89464 8.73478 4 9 4ZM17.5 14H9C8.73478 14 8.48043 14.1054 8.29289 14.2929C8.10536 14.4804 8 14.7348 8 15C8 15.2652 8.10536 15.5196 8.29289 15.7071C8.48043 15.8946 8.73478 16 9 16H17.5C17.7652 16 18.0196 15.8946 18.2071 15.7071C18.3946 15.5196 18.5 15.2652 18.5 15C18.5 14.7348 18.3946 14.4804 18.2071 14.2929C18.0196 14.1054 17.7652 14 17.5 14ZM17.5 8H9C8.73478 8 8.48043 8.10536 8.29289 8.29289C8.10536 8.48043 8 8.73478 8 9C8 9.26522 8.10536 9.51957 8.29289 9.70711C8.48043 9.89464 8.73478 10 9 10H17.5C17.7652 10 18.0196 9.89464 18.2071 9.70711C18.3946 9.51957 18.5 9.26522 18.5 9C18.5 8.73478 18.3946 8.48043 18.2071 8.29289C18.0196 8.10536 17.7652 8 17.5 8Z"/>
</symbol>
<symbol id="task" viewBox="0 0 18 14">
<path d="M0 1C0 0.734784 0.105357 0.48043 0.292893 0.292893C0.48043 0.105357 0.734784 0 1 0H17C17.2652 0 17.5196 0.105357 17.7071 0.292893C17.8946 0.48043 18 0.734784 18 1C18 1.26522 17.8946 1.51957 17.7071 1.70711C17.5196 1.89464 17.2652 2 17 2H1C0.734784 2 0.48043 1.89464 0.292893 1.70711C0.105357 1.51957 0 1.26522 0 1ZM1 6H11C11.2652 6 11.5196 5.89464 11.7071 5.70711C11.8946 5.51957 12 5.26522 12 5C12 4.73478 11.8946 4.48043 11.7071 4.29289C11.5196 4.10536 11.2652 4 11 4H1C0.734784 4 0.48043 4.10536 0.292893 4.29289C0.105357 4.48043 0 4.73478 0 5C0 5.26522 0.105357 5.51957 0.292893 5.70711C0.48043 5.89464 0.734784 6 1 6ZM17 8H1C0.734784 8 0.48043 8.10536 0.292893 8.29289C0.105357 8.48043 0 8.73478 0 9C0 9.26522 0.105357 9.51957 0.292893 9.70711C0.48043 9.89464 0.734784 10 1 10H17C17.2652 10 17.5196 9.89464 17.7071 9.70711C17.8946 9.51957 18 9.26522 18 9C18 8.73478 17.8946 8.48043 17.7071 8.29289C17.5196 8.10536 17.2652 8 17 8ZM11 12H1C0.734784 12 0.48043 12.1054 0.292893 12.2929C0.105357 12.4804 0 12.7348 0 13C0 13.2652 0.105357 13.5196 0.292893 13.7071C0.48043 13.8946 0.734784 14 1 14H11C11.2652 14 11.5196 13.8946 11.7071 13.7071C11.8946 13.5196 12 13.2652 12 13C12 12.7348 11.8946 12.4804 11.7071 12.2929C11.5196 12.1054 11.2652 12 11 12Z"/>
</symbol>
</svg>





